<?xml version="1.0" encoding="UTF-8"?>
<svg version="1.1" xmlns="http://www.w3.org/2000/svg" width="324" height="346">
<path d="M0 0 C106.92 0 213.84 0 324 0 C324 114.18 324 228.36 324 346 C217.08 346 110.16 346 0 346 C0 231.82 0 117.64 0 0 Z " fill="#0C4436" transform="translate(0,0)"/>
<path d="M0 0 C0.62583984 0.17305664 1.25167969 0.34611328 1.89648438 0.52441406 C7.24292179 1.99361971 12.59806583 3.41879285 17.96875 4.796875 C48.17335139 12.59353858 74.83747514 20.11950134 92.234375 47.9765625 C99.25495451 60.66761008 102.69406358 79.2720697 99.12890625 93.46875 C98.75636719 94.6340625 98.38382812 95.799375 98 97 C97.64421875 98.21558594 97.2884375 99.43117188 96.921875 100.68359375 C94.63320567 108.0149645 92.32317117 114.27438978 87 120 C86 118 86 118 86.4375 115.1875 C89.04595955 98.09151508 84.57821089 83.01855377 75 69 C72.21120676 65.42230488 69.22479747 62.18673072 66 59 C65.28714844 58.26523438 64.57429688 57.53046875 63.83984375 56.7734375 C55.45299415 48.63114441 44.11978408 40.88415611 33 37 C33.46672119 37.34554932 33.93344238 37.69109863 34.41430664 38.04711914 C50.53654512 50.06730796 65.06013915 62.29182447 75 80 C75.44859375 80.78246094 75.8971875 81.56492187 76.359375 82.37109375 C82.1349879 93.10620034 83.17680243 107.55557984 80.45068359 119.38330078 C78.68656095 125.05324847 76.64131338 131.0695184 72 135 C71.97421875 134.34515625 71.9484375 133.6903125 71.921875 133.015625 C70.99045008 118.02815124 65.32214095 105.3913801 54.41796875 95.03515625 C46.69331008 88.53346455 37.15029569 83.3545525 27 82.625 C22.56927792 81.86445086 20.65645678 79.85624168 17.98632812 76.30029297 C15.86978094 73.26471871 13.89040567 70.18122338 12 67 C11.56792236 66.30237549 11.13584473 65.60475098 10.69067383 64.88598633 C7.4107965 59.3663709 5.66386631 54.06726343 4.3125 47.8125 C4.10536377 46.88614746 3.89822754 45.95979492 3.68481445 45.00537109 C3.10134663 42.34093756 2.54453188 39.67262987 2 37 C1.74992187 35.78957031 1.49984375 34.57914063 1.2421875 33.33203125 C-0.65980301 22.33531147 -0.18680959 11.11948144 0 0 Z " fill="#F8F9F9" transform="translate(44,105)"/>
<path d="M0 0 C-5.629517 20.82921289 -23.98640376 38.92035876 -42.09375 49.4296875 C-57.7013406 58.15032697 -75.8956704 64.17504062 -94 63 C-88.28528605 42.96842374 -66.41310979 24.99194427 -49.04736328 14.86083984 C-33.97027249 6.49541431 -17.4638911 -0.56335133 0 0 Z " fill="#F7F9F9" transform="translate(259,210)"/>
<path d="M0 0 C16.38364115 -0.97975263 32.49481692 3.92689252 45.1796875 14.54296875 C52.61886265 21.52853566 59.45605608 30.66257384 60.14526367 41.2265625 C60.16979428 43.81783911 60.185649 46.40859872 60.1875 49 C60.19974609 49.90234375 60.21199219 50.8046875 60.22460938 51.734375 C60.22654297 52.60578125 60.22847656 53.4771875 60.23046875 54.375 C60.23457764 55.16648438 60.23868652 55.95796875 60.24291992 56.7734375 C59.97405224 59.23783271 59.2296427 60.86541094 58 63 C57.67 63 57.34 63 57 63 C56.93683594 62.44054687 56.87367187 61.88109375 56.80859375 61.3046875 C54.66372019 47.26141006 47.02449164 35.35315509 35.98046875 26.609375 C33.35462456 24.68128402 30.70717629 22.81153105 28 21 C28.639375 21.61875 29.27875 22.2375 29.9375 22.875 C30.96297618 23.91209631 31.98295301 24.95463616 33 26 C33.68964844 26.70511719 34.37929687 27.41023438 35.08984375 28.13671875 C44.26401622 37.87545568 52.1013418 49.31814917 52.1875 63.125 C52.0946875 65.043125 52.0946875 65.043125 52 67 C51.10539062 66.55269531 50.21078125 66.10539062 49.2890625 65.64453125 C48.70874268 65.35473389 48.12842285 65.06493652 47.53051758 64.76635742 C46.24793256 64.12432543 44.96653783 63.47991068 43.6862793 62.83325195 C40.88722558 61.42267481 38.0971153 60.04301016 35.23046875 58.7734375 C22.45569745 53.03614118 13.59466208 42.62278235 8 30 C4.31413138 20.26537834 1.92086118 10.21174621 0 0 Z " fill="#F5F7F7" transform="translate(50,189)"/>
<path d="M0 0 C-0.33 2.31 -0.66 4.62 -1 7 C-2.01835937 7.08636719 -3.03671875 7.17273438 -4.0859375 7.26171875 C-28.25801586 9.55060996 -50.78751899 17.92248866 -70 33 C-70.5352832 33.41862305 -71.07056641 33.83724609 -71.62207031 34.26855469 C-86.43846157 45.97758328 -98.6896033 59.93177804 -107 77 C-115.28982104 77.43630637 -122.95969329 75.77967263 -131 74 C-124.35884753 51.19645095 -99.47479429 32.53126664 -80 21 C-79.41379883 20.65195313 -78.82759766 20.30390625 -78.22363281 19.9453125 C-62.86904732 10.97371504 -46.37390933 5.51005884 -29 2 C-27.96746094 1.77441406 -26.93492187 1.54882812 -25.87109375 1.31640625 C-17.27293868 -0.37982842 -8.72185133 -0.18601105 0 0 Z " fill="#F3F5F5" transform="translate(264,196)"/>
<path d="M0 0 C-0.875 6.875 -0.875 6.875 -2 8 C-3.46061331 8.10952715 -4.92604592 8.15589296 -6.390625 8.17578125 C-33.74665495 8.78961459 -58.95245794 14.72984198 -83 28 C-84.06605469 28.57621094 -85.13210937 29.15242188 -86.23046875 29.74609375 C-97.58707897 36.10755846 -107.55365439 44.08691584 -117 53 C-117.79921875 53.72316406 -118.5984375 54.44632813 -119.421875 55.19140625 C-128.51341932 63.74730225 -135.75264256 74.22066122 -142 85 C-152.55808656 82.10933941 -152.55808656 82.10933941 -157 79 C-147.33118883 52.06201862 -115.33379191 29.6137157 -90.62451172 17.87109375 C-61.38443112 4.38337627 -32.06295776 -0.55258975 0 0 Z " fill="#F1F4F3" transform="translate(268,182)"/>
<path d="M0 0 C3.41311667 2.52570633 4.66637768 3.99913304 6 8 C6.34531267 13.35234642 6.47574585 16.65531768 3 21 C2.3122197 21.43223373 1.62443939 21.86446747 0.91581726 22.30979919 C-1.22261599 23.84927974 -1.22261599 23.84927974 -1.4584198 26.38148499 C-1.4401564 27.32173019 -1.42189301 28.2619754 -1.40307617 29.23071289 C-1.39374557 30.29935074 -1.38441498 31.36798859 -1.37480164 32.4690094 C-1.34779678 33.62521286 -1.32079193 34.78141632 -1.29296875 35.97265625 C-1.28308697 38.42382282 -1.27467057 40.87499565 -1.26757812 43.32617188 C-1.23450618 47.18873015 -1.18774274 51.04986892 -1.11352539 54.91186523 C-1.05011138 58.64132704 -1.04304704 62.36772681 -1.04296875 66.09765625 C-1.00584274 67.23969009 -0.96871674 68.38172394 -0.9304657 69.55836487 C-0.96877878 76.05709814 -1.88282598 79.59164926 -6.26293945 84.50952148 C-7.81641335 86.03284423 -9.39572392 87.53027499 -11 89 C-12.58692439 90.57973411 -14.17078123 92.16256277 -15.75 93.75 C-16.44609375 94.42546875 -17.1421875 95.1009375 -17.859375 95.796875 C-20.11929176 98.05404032 -20.11929176 98.05404032 -22.375 100.953125 C-24.96934603 104.10894884 -27.98179144 106.57039651 -31.25 109 C-32.03310547 109.59941406 -32.03310547 109.59941406 -32.83203125 110.2109375 C-33.36699219 110.61570312 -33.90195313 111.02046875 -34.453125 111.4375 C-35.00427979 111.85950684 -35.55543457 112.28151367 -36.12329102 112.71630859 C-38 114 -38 114 -40.39038086 115.17822266 C-43.05166926 116.57989956 -44.95916095 117.77964521 -47 120 C-48.24279091 124.46925291 -48.16996625 128.76144886 -48.0625 133.375 C-48.07313477 135.19451172 -48.07313477 135.19451172 -48.08398438 137.05078125 C-48.09573814 140.03623683 -48.06645804 143.01542988 -48 146 C-50.31 146.99 -52.62 147.98 -55 149 C-55.27382288 144.44726373 -55.47230307 139.89939079 -55.60424805 135.34033203 C-55.65927006 133.79358419 -55.73412755 132.24740097 -55.82983398 130.70263672 C-56.60021132 117.93991488 -56.60021132 117.93991488 -52.85400391 113.3984375 C-50.00317418 111.31743726 -47.11589907 109.65328824 -44 108 C-42.3490686 106.87986261 -40.71408116 105.73578761 -39.09765625 104.56640625 C-36.42372188 102.67534485 -33.74458736 100.83687828 -30.98388672 99.07373047 C-21.61864583 92.85375886 -11.92773203 85.42320079 -9.30108643 73.94610596 C-6.8417645 57.19153677 -7.89851154 39.83905921 -9 23 C-9.77730469 22.8865625 -10.55460937 22.773125 -11.35546875 22.65625 C-14 22 -14 22 -16.3125 19.5 C-18.41119199 15.14715735 -18.88542461 11.7514865 -18 7 C-13.52649392 -0.25016502 -8.02214372 -1.17282803 0 0 Z " fill="#EEF2F1" transform="translate(222,50)"/>
<path d="M0 0 C3.17568542 1.65233922 5.37696485 3.75392971 7 7 C7.64595249 11.01471738 7.8318387 14.55217947 5.765625 18.1484375 C4.25804189 19.97694177 2.89095913 21.56912825 1 23 C0.01 23 -0.98 23 -2 23 C-1.94779297 24.97033203 -1.94779297 24.97033203 -1.89453125 26.98046875 C-1.86638534 28.71613301 -1.83908604 30.45181115 -1.8125 32.1875 C-1.78736328 33.05181641 -1.76222656 33.91613281 -1.73632812 34.80664062 C-1.67996866 39.70991407 -1.75367306 43.05216793 -5 47 C-10.08357108 51.9834022 -16.64902125 55.04508007 -22.94921875 58.19140625 C-26.74453419 60.44138198 -29.99775144 62.99550287 -32 67 C-32.09246766 68.39845443 -32.12512802 69.80112884 -32.12597656 71.20263672 C-32.12978333 72.07048798 -32.13359009 72.93833923 -32.13751221 73.83248901 C-32.13853943 74.77206451 -32.13956665 75.71164001 -32.140625 76.6796875 C-32.15895033 78.66016778 -32.17852039 80.64063685 -32.19921875 82.62109375 C-32.22821916 85.75068046 -32.25000071 88.8795474 -32.25048828 92.00927734 C-32.25381749 95.02506736 -32.28833446 98.03918685 -32.328125 101.0546875 C-32.3210553 101.99021454 -32.3139856 102.92574158 -32.30670166 103.88961792 C-32.42858594 110.38021776 -32.42858594 110.38021776 -35.41699219 113.62158203 C-38 115 -38 115 -40 115 C-40.10179743 108.16826164 -40.17163191 101.33672041 -40.21972656 94.50439453 C-40.23978577 92.18238007 -40.26703991 89.86041577 -40.30175781 87.53857422 C-40.35052541 84.19225655 -40.37302643 80.84660941 -40.390625 77.5 C-40.42159271 75.95421265 -40.42159271 75.95421265 -40.45318604 74.37719727 C-40.45513794 68.04313921 -39.64295298 63.2817964 -36 58 C-33.9140625 55.96875 -33.9140625 55.96875 -31.625 54.5 C-30.76132813 53.93925781 -29.89765625 53.37851563 -29.0078125 52.80078125 C-24.92473448 50.35623713 -20.81292113 47.96493945 -16.64697266 45.6640625 C-14.13249148 44.27034166 -12.04477876 43.04477876 -10 41 C-9.63168919 39.06742145 -9.63168919 39.06742145 -9.5859375 36.8671875 C-9.54726562 36.06152344 -9.50859375 35.25585938 -9.46875 34.42578125 C-9.42234375 33.16314453 -9.42234375 33.16314453 -9.375 31.875 C-9.33632812 31.02550781 -9.29765625 30.17601563 -9.2578125 29.30078125 C-9.16343506 27.20088316 -9.08062414 25.10047109 -9 23 C-9.60328125 22.88785156 -10.2065625 22.77570313 -10.828125 22.66015625 C-14.35063108 21.58946645 -16.29192171 19.12585078 -18 16 C-19.04032722 11.52748212 -18.34974863 8.65125607 -16.1875 4.625 C-11.57828119 -0.90606257 -6.80338329 -0.98023069 0 0 Z " fill="#EFF2F1" transform="translate(190,94)"/>
<path d="M0 0 C3.8026029 2.0050088 5.61790841 3.42686262 8 7 C8.66457142 11.0643789 8.8999805 15.20721016 7.01953125 18.953125 C4.64218997 21.96686225 2.69944472 23.29647312 -1 24 C-0.95810547 25.1144751 -0.91621094 26.2289502 -0.87304688 27.37719727 C-0.72762572 31.5345466 -0.63618852 35.69167433 -0.56054688 39.85083008 C-0.52045352 41.64646268 -0.46596014 43.44183634 -0.39648438 45.23657227 C0.16221609 60.04624263 0.16221609 60.04624263 -2.52636719 64.56591797 C-4.58166313 66.39873342 -6.58896361 67.67822801 -9 69 C-10.34898854 69.98586192 -11.68767671 70.98597478 -13.015625 72 C-14.42444292 73.00371644 -15.83600626 74.00358827 -17.25 75 C-25.15692024 80.62730412 -32.92463294 86.42056736 -40.62597656 92.32617188 C-41.4300293 92.93654297 -42.23408203 93.54691406 -43.0625 94.17578125 C-43.77535156 94.72145752 -44.48820313 95.26713379 -45.22265625 95.8293457 C-47 97 -47 97 -49 97 C-49 97.99 -49 98.98 -49 100 C-52.465 100.99 -52.465 100.99 -56 102 C-56.57289148 98.79180772 -56.82621526 97.08241847 -56 94 C-53.11601534 90.73927861 -49.57780059 88.44868481 -46 86 C-44.41657186 84.86358734 -42.83321508 83.72707135 -41.25195312 82.58764648 C-39.51091701 81.33797504 -37.76172063 80.10035964 -36.01171875 78.86328125 C-31.25720418 75.48727307 -26.56657173 72.02518839 -21.875 68.5625 C-21.05717041 67.95905762 -20.23934082 67.35561523 -19.39672852 66.73388672 C-17.2630604 65.15782373 -15.12985688 63.58120954 -13 62 C-12.26894043 61.60699707 -11.53788086 61.21399414 -10.78466797 60.80908203 C-8.00348656 57.98985436 -8.39676512 54.79939793 -8.390625 51.05078125 C-8.37408875 50.27816452 -8.35755249 49.50554779 -8.34051514 48.70951843 C-8.29196142 46.24376538 -8.27064912 43.77862928 -8.25 41.3125 C-8.22184628 39.63994279 -8.19191969 37.96741442 -8.16015625 36.29492188 C-8.08620119 32.19666538 -8.03667222 28.09875284 -8 24 C-8.79792969 23.72414063 -9.59585938 23.44828125 -10.41796875 23.1640625 C-13 22 -13 22 -14.3125 19.375 C-14.539375 18.59125 -14.76625 17.8075 -15 17 C-15.66 17 -16.32 17 -17 17 C-17.57685009 7.19354839 -17.57685009 7.19354839 -14 3 C-9.79572415 -0.58599999 -5.29424854 -0.85751913 0 0 Z " fill="#EBF0EF" transform="translate(250,85)"/>
<path d="M0 0 C1.08555176 0.00161133 2.17110352 0.00322266 3.28955078 0.00488281 C17.3622353 0.21501512 31.15614065 2.78292303 44.125 8.375 C44.25 10.75 44.25 10.75 44.125 13.375 C43.465 14.035 42.805 14.695 42.125 15.375 C37.4058264 15.09184958 33.43633051 13.84869761 29.09375 12.13671875 C12.5519327 5.73661086 -7.35294574 6.69062657 -23.875 12.375 C-24.8340625 12.67535156 -25.793125 12.97570313 -26.78125 13.28515625 C-48.95005971 20.64290775 -65.20153278 35.71724948 -76.2109375 56.046875 C-78.23816412 60.10132825 -79.67111284 64.01090905 -80.875 68.375 C-83.185 68.045 -85.495 67.715 -87.875 67.375 C-89.23479151 63.29562548 -87.63267978 61.04199877 -85.875 57.375 C-85.36582031 56.25480469 -84.85664062 55.13460937 -84.33203125 53.98046875 C-80.62181726 46.2692164 -76.52283593 39.86940663 -70.875 33.375 C-70.111875 32.364375 -69.34875 31.35375 -68.5625 30.3125 C-58.30168208 19.09718739 -45.09293697 10.55594504 -30.875 5.375 C-30.08222656 5.07851563 -29.28945312 4.78203125 -28.47265625 4.4765625 C-19.0986057 1.14869218 -9.92118221 -0.01551882 0 0 Z " fill="#87BA22" transform="translate(153.875,38.625)"/>
<path d="M0 0 C20.89994664 6.202148 41.60948756 23.30755007 52.34765625 41.86328125 C59.12973904 54.73801525 61.44269674 67.17620783 59.4375 81.6875 C58.70215884 84.87138281 58.70215884 84.87138281 60 87 C59.01 87 58.02 87 57 87 C57 85.02 57 83.04 57 81 C55.68 80.67 54.36 80.34 53 80 C52.94392578 78.22496094 52.94392578 78.22496094 52.88671875 76.4140625 C51.92774229 51.39325405 40.62324677 34.44096506 22.67578125 17.51464844 C16.19603602 11.65795563 8.89541435 6.78430703 1.546875 2.09375 C1.03640625 1.7328125 0.5259375 1.371875 0 1 C0 0.67 0 0.34 0 0 Z " fill="#1B4F43" transform="translate(72,139)"/>
<path d="M0 0 C-0.33 1.65 -0.66 3.3 -1 5 C-1.97453125 4.84144531 -2.9490625 4.68289062 -3.953125 4.51953125 C-18.64514789 2.44123756 -31.56613342 3.59054794 -43.92578125 12.35546875 C-48.52198408 15.99953916 -52.55841688 19.59784991 -55 25 C-56.65 24.67 -58.3 24.34 -60 24 C-59.13259086 16.50024709 -53.0799425 11.61028834 -47.56640625 6.9375 C-41.78140916 2.64271816 -35.85438475 0.12132373 -29 -2 C-20.06048802 -4.97983733 -8.49278693 -3.70594339 0 0 Z " fill="#86B723" transform="translate(166,70)"/>
<path d="M0 0 C1.175625 0.12375 2.35125 0.2475 3.5625 0.375 C6.95237215 0.99134039 8.00777405 1.30463548 10 4 C9.67 4.99 9.34 5.98 9 7 C9 6.34 9 5.68 9 5 C-7.49310472 7.0437108 -21.35181285 11.47769517 -36.21777344 18.81542969 C-39.02925911 20.18783168 -40.82331031 21 -44 21 C-44 20.34 -44 19.68 -44 19 C-46.64 19.66 -49.28 20.32 -52 21 C-48.24560986 16.50530758 -43.29703377 14.21032805 -38.1875 11.5625 C-37.25204346 11.07531494 -36.31658691 10.58812988 -35.3527832 10.08618164 C-27.73992095 6.20775896 -20.2312211 3.27957376 -12 1 C-11.15695313 0.74605469 -10.31390625 0.49210938 -9.4453125 0.23046875 C-5.83614336 -0.79411223 -3.56279624 -0.99426872 0 0 Z " fill="#134C3F" transform="translate(250,205)"/>
<path d="M0 0 C0 0.99 0 1.98 0 3 C0.99 3.33 1.98 3.66 3 4 C2.08863281 4.13535156 1.17726562 4.27070313 0.23828125 4.41015625 C-12.79271749 6.57550629 -24.96712303 10.74103859 -37.3671875 15.21484375 C-40 16 -40 16 -44 16 C-44.33 14.68 -44.66 13.36 -45 12 C-45.33 12.66 -45.66 13.32 -46 14 C-46.66 13.34 -47.32 12.68 -48 12 C-9.79848573 -4.89924287 -9.79848573 -4.89924287 0 0 Z " fill="#13463B" transform="translate(238,194)"/>
<path d="M0 0 C14.26816084 4.33885593 25.03978992 14.63930994 32.234375 27.45703125 C33.20428969 30.67853361 32.53122708 32.0791319 31 35 C30.01 35 29.02 35 28 35 C27.68289062 34.24976563 27.36578125 33.49953125 27.0390625 32.7265625 C21.47634956 20.52547391 13.87179769 13.29528717 1.91430664 7.59863281 C0.24427507 6.79570393 -1.38233581 5.90380464 -3 5 C-3.33 4.01 -3.66 3.02 -4 2 C-3.01 2 -2.02 2 -1 2 C-1 2.66 -1 3.32 -1 4 C0.32 4.33 1.64 4.66 3 5 C3 4.34 3 3.68 3 3 C2.34 3 1.68 3 1 3 C0.67 2.01 0.34 1.02 0 0 Z " fill="#1B4A40" transform="translate(80,189)"/>
<path d="M0 0 C0.71994141 -0.01224609 1.43988281 -0.02449219 2.18164062 -0.03710938 C5.9801247 -0.04769011 7.70116518 0.02994345 10.9375 2.1875 C10.6075 3.5075 10.2775 4.8275 9.9375 6.1875 C8.77734375 6.11789063 7.6171875 6.04828125 6.421875 5.9765625 C-3.65509843 5.55286052 -11.64443792 5.91006837 -20.0625 12.1875 C-22.67580275 14.68018878 -24.9516878 17.25911969 -27.0625 20.1875 C-28.3825 19.8575 -29.7025 19.5275 -31.0625 19.1875 C-30.27578445 12.97999102 -26.78219656 9.99867422 -22.0625 6.1875 C-14.63790309 1.67059276 -8.65123744 0.00778689 0 0 Z " fill="#83B523" transform="translate(150.0625,80.8125)"/>
<path d="M0 0 C12.49854282 4.43210738 22.67919286 16.31781008 28.3203125 27.96875 C28.54460937 28.6390625 28.76890625 29.309375 29 30 C28.67 30.66 28.34 31.32 28 32 C27.32136945 33.9959722 26.65358081 35.99568551 26 38 C24.52696334 35.18257617 23.3882621 32.36376891 22.3125 29.375 C17.71596822 17.82430575 8.81936766 8.54376242 0 0 Z " fill="#1E5045" transform="translate(76,209)"/>
<path d="M0 0 C-0.33 1.65 -0.66 3.3 -1 5 C-8.59 4.34 -16.18 3.68 -24 3 C-24.33 1.68 -24.66 0.36 -25 -1 C-26.32 -1.33 -27.64 -1.66 -29 -2 C-20.06048802 -4.97983733 -8.49278693 -3.70594339 0 0 Z " fill="#7CAD26" transform="translate(166,70)"/>
<path d="M0 0 C1.30324219 -0.00386719 1.30324219 -0.00386719 2.6328125 -0.0078125 C4.875 0.125 4.875 0.125 6.875 1.125 C6.875 2.445 6.875 3.765 6.875 5.125 C6.07835937 5.15078125 5.28171875 5.1765625 4.4609375 5.203125 C-3.09327173 5.60748656 -7.49365492 6.21432068 -12.75 11.875 C-14.125 13.125 -14.125 13.125 -18.125 13.125 C-18.125 10.5 -18.125 10.5 -17.125 7.125 C-11.91948749 1.94331134 -7.26669653 -0.02169163 0 0 Z " fill="#83B422" transform="translate(149.125,93.875)"/>
<path d="M0 0 C0 0.99 0 1.98 0 3 C0.99 3.33 1.98 3.66 3 4 C1.90300781 4.20496094 0.80601562 4.40992188 -0.32421875 4.62109375 C-1.77864887 4.89321293 -3.23307578 5.16534925 -4.6875 5.4375 C-5.40873047 5.57220703 -6.12996094 5.70691406 -6.87304688 5.84570312 C-7.57880859 5.97783203 -8.28457031 6.10996094 -9.01171875 6.24609375 C-9.69927246 6.3735498 -10.38682617 6.50100586 -11.09521484 6.63232422 C-12.7016097 6.94240249 -14.29944247 7.29636407 -15.89453125 7.66015625 C-18 8 -18 8 -20 7 C-20 6.01 -20 5.02 -20 4 C-21.98 4 -23.96 4 -26 4 C-22.28809631 1.52539754 -18.86188638 0.81244125 -14.5625 -0.1875 C-13.79873047 -0.37763672 -13.03496094 -0.56777344 -12.24804688 -0.76367188 C-11.50748047 -0.93833984 -10.76691406 -1.11300781 -10.00390625 -1.29296875 C-9.33174072 -1.4530542 -8.6595752 -1.61313965 -7.96704102 -1.77807617 C-4.92995842 -2.12072332 -2.6996712 -1.3498356 0 0 Z " fill="#1B5447" transform="translate(238,194)"/>
<path d="M0 0 C1.7634375 0.185625 1.7634375 0.185625 3.5625 0.375 C6.95237215 0.99134039 8.00777405 1.30463548 10 4 C9.67 4.99 9.34 5.98 9 7 C9 6.34 9 5.68 9 5 C7.24623047 5.2165625 7.24623047 5.2165625 5.45703125 5.4375 C3.90887301 5.62515554 2.36069487 5.8126469 0.8125 6 C0.04357422 6.09539062 -0.72535156 6.19078125 -1.51757812 6.2890625 C-5.36928811 6.75192894 -9.11170851 7.12467468 -13 7 C-13 6.01 -13 5.02 -13 4 C-17.455 4.495 -17.455 4.495 -22 5 C-18.644661 2.76310733 -15.40369426 1.83264459 -11.5625 0.8125 C-10.55993164 0.52729492 -10.55993164 0.52729492 -9.53710938 0.23632812 C-5.99819332 -0.7141637 -3.47423607 -1.26406357 0 0 Z " fill="#1D5347" transform="translate(250,205)"/>
<path d="M0 0 C0.99 0.66 1.98 1.32 3 2 C3.3125 5.5 3.3125 5.5 3 9 C1 11 1 11 -2.5 11.3125 C-4.2325 11.1578125 -4.2325 11.1578125 -6 11 C-8.15502531 7.76746204 -8.46856135 6.74849077 -8 3 C-5.84150709 -0.29454181 -3.78263233 -0.47282904 0 0 Z " fill="#194A3F" transform="translate(187,100)"/>
<path d="M0 0 C3.5 0.25 3.5 0.25 5.5 2.25 C5.625 5.875 5.625 5.875 5.5 9.25 C2.48675805 10.75662097 -0.18286377 10.42770373 -3.5 10.25 C-5.5 8.25 -5.5 8.25 -5.75 5.25 C-5.37802459 0.78629509 -4.42019834 0.31572845 0 0 Z " fill="#1F5549" transform="translate(216.5,56.75)"/>
<path d="M0 0 C3.5 0.25 3.5 0.25 5.5 2.25 C5.75 5.25 5.75 5.25 5.5 8.25 C3.5 10.25 3.5 10.25 0 10.5 C-3.5 10.25 -3.5 10.25 -5.5 8.25 C-5.75 5.25 -5.75 5.25 -5.5 2.25 C-3.5 0.25 -3.5 0.25 0 0 Z " fill="#18473D" transform="translate(245.5,91.75)"/>
<path d="M0 0 C0.33 0.66 0.66 1.32 1 2 C1.99 2.33 2.98 2.66 4 3 C1.068542 4.20282097 -1.87097242 5.38454273 -4.8125 6.5625 C-5.64587891 6.90474609 -6.47925781 7.24699219 -7.33789062 7.59960938 C-8.14033203 7.91865234 -8.94277344 8.23769531 -9.76953125 8.56640625 C-10.50792236 8.86490479 -11.24631348 9.16340332 -12.00708008 9.47094727 C-14 10 -14 10 -17 9 C-14.60038504 4.20077008 -13.84257908 2.70917901 -8.625 0.8125 C-7.64789063 0.44769531 -6.67078125 0.08289063 -5.6640625 -0.29296875 C-3 -1 -3 -1 0 0 Z " fill="#0A3D32" transform="translate(238,209)"/>
<path d="M0 0 C-0.99 0.495 -0.99 0.495 -2 1 C-2 1.66 -2 2.32 -2 3 C-1.01 3.66 -0.02 4.32 1 5 C-4.05002222 6.03590199 -8.87416389 6.10251672 -14 6 C-14 5.01 -14 4.02 -14 3 C-15.65 3 -17.3 3 -19 3 C-13.48034107 -0.67977262 -6.47704725 -0.13780952 0 0 Z " fill="#083B2F" transform="translate(252,191)"/>
<path d="M0 0 C0.73605469 0.00451172 1.47210938 0.00902344 2.23046875 0.01367188 C4.02868158 0.02534858 5.82685197 0.04327989 7.625 0.0625 C7.955 1.0525 8.285 2.0425 8.625 3.0625 C8.295 3.3925 7.965 3.7225 7.625 4.0625 C10.1 4.5575 10.1 4.5575 12.625 5.0625 C12.625 5.3925 12.625 5.7225 12.625 6.0625 C1.10335991 6.24701025 1.10335991 6.24701025 -4.375 5.0625 C-3.385 4.7325 -2.395 4.4025 -1.375 4.0625 C-1.375 3.4025 -1.375 2.7425 -1.375 2.0625 C-5.665 2.0625 -9.955 2.0625 -14.375 2.0625 C-14.375 1.7325 -14.375 1.4025 -14.375 1.0625 C-9.51770355 0.08950844 -4.9249375 -0.05788805 0 0 Z " fill="#24594D" transform="translate(251.375,189.9375)"/>
<path d="M0 0 C0.66 0.33 1.32 0.66 2 1 C0.68 2.32 -0.64 3.64 -2 5 C-1.01 6.485 -1.01 6.485 0 8 C-3.61973402 9.31626692 -6.09567131 10 -10 10 C-10.33 8.68 -10.66 7.36 -11 6 C-11.33 6.66 -11.66 7.32 -12 8 C-12.66 7.34 -13.32 6.68 -14 6 C-11.71220962 4.96959833 -9.42048864 3.95047982 -7.125 2.9375 C-6.47402344 2.64294922 -5.82304687 2.34839844 -5.15234375 2.04492188 C-3.45989459 1.30338487 -1.73131425 0.64560999 0 0 Z " fill="#20584D" transform="translate(204,200)"/>
<path d="M0 0 C1.8871875 0.0309375 1.8871875 0.0309375 3.8125 0.0625 C3.8125 0.7225 3.8125 1.3825 3.8125 2.0625 C5.7925 2.0625 7.7725 2.0625 9.8125 2.0625 C9.8125 2.3925 9.8125 2.7225 9.8125 3.0625 C3.98995757 5.03068336 -1.02131819 6.46464229 -7.1875 6.0625 C-7.1875 4.4125 -7.1875 2.7625 -7.1875 1.0625 C-4.43671116 0.14557039 -2.82801087 -0.04636083 0 0 Z " fill="#89BD25" transform="translate(137.1875,68.9375)"/>
<path d="M0 0 C5.26122171 1.51031916 9.67232586 3.90374191 14.375 6.625 C15.47908203 7.25535156 15.47908203 7.25535156 16.60546875 7.8984375 C18.4063765 8.92752764 20.20357318 9.96310756 22 11 C21.34 12.32 20.68 13.64 20 15 C5.02311248 5.22342065 5.02311248 5.22342065 0 0 Z " fill="#224F45" transform="translate(72,139)"/>
<path d="M0 0 C-0.99 0.66 -1.98 1.32 -3 2 C-2.34 2.66 -1.68 3.32 -1 4 C-4.13498292 5.85776765 -6.37471432 6.20140476 -10 6 C-10 5.01 -10 4.02 -10 3 C-14.455 3.495 -14.455 3.495 -19 4 C-12.97784896 -0.01476736 -7.00056891 -0.28573751 0 0 Z " fill="#255A4E" transform="translate(247,206)"/>
<path d="M0 0 C4.01018103 1.38952413 6.90032723 3.26698294 10.1875 5.9375 C11.04730469 6.62714844 11.90710938 7.31679687 12.79296875 8.02734375 C15 10 15 10 17 13 C16.01 13.66 15.02 14.32 14 15 C13.40832031 14.33613281 12.81664063 13.67226562 12.20703125 12.98828125 C8.2358017 8.55061038 4.28020312 4.14213205 0 0 Z " fill="#29564A" transform="translate(76,209)"/>
<path d="M0 0 C0.33 0 0.66 0 1 0 C1.05819424 3.24992446 1.09366116 6.49971435 1.125 9.75 C1.14175781 10.67039063 1.15851563 11.59078125 1.17578125 12.5390625 C1.18222656 13.42851562 1.18867187 14.31796875 1.1953125 15.234375 C1.20578613 16.05131836 1.21625977 16.86826172 1.22705078 17.70996094 C0.97829916 20.21887518 0.25700129 21.83395625 -1 24 C-1.33 24 -1.66 24 -2 24 C-2.66 20.37 -3.32 16.74 -4 13 C-2.68 12.67 -1.36 12.34 0 12 C0 8.04 0 4.08 0 0 Z " fill="#D9E3E1" transform="translate(109,228)"/>
<path d="M0 0 C0.66 0.33 1.32 0.66 2 1 C0.71034824 2.37562854 -0.62689293 3.70766393 -2 5 C-2.66 5 -3.32 5 -4 5 C-4 15.56 -4 26.12 -4 37 C-4.33 37 -4.66 37 -5 37 C-5.1237709 32.3736342 -5.21441516 27.74823539 -5.2746582 23.12060547 C-5.29977448 21.54719249 -5.33387472 19.97389588 -5.37719727 18.40087891 C-5.43798399 16.13675228 -5.46623582 13.87416978 -5.48828125 11.609375 C-5.51408768 10.90818542 -5.5398941 10.20699585 -5.56648254 9.48455811 C-5.56762695 7.48339844 -5.56762695 7.48339844 -5 4 C-2.46948242 1.52441406 -2.46948242 1.52441406 0 0 Z " fill="#E1E8E5" transform="translate(172,162)"/>
<path d="M0 0 C5.75 1.75 5.75 1.75 8 4 C7 7 7 7 5.3125 7.875 C1.88861956 8.06007462 -0.13458012 6.78292792 -3 5 C-3.33 4.01 -3.66 3.02 -4 2 C-3.01 2 -2.02 2 -1 2 C-1 2.66 -1 3.32 -1 4 C0.32 4.33 1.64 4.66 3 5 C3 4.34 3 3.68 3 3 C2.34 3 1.68 3 1 3 C0.67 2.01 0.34 1.02 0 0 Z " fill="#285D51" transform="translate(80,189)"/>
<path d="M0 0 C3.125 0.6875 3.125 0.6875 6 2 C6.33 2.99 6.66 3.98 7 5 C7.66 5 8.32 5 9 5 C9 5.66 9 6.32 9 7 C5.125 6.125 5.125 6.125 4 5 C4 5.33 4 5.66 4 6 C1.03 5.67 -1.94 5.34 -5 5 C-3 2 -3 2 0 0 Z " fill="#1A4C41" transform="translate(74,187)"/>
<path d="M0 0 C7.75 -0.125 7.75 -0.125 10 1 C10 2.32 10 3.64 10 5 C6.37 4.67 2.74 4.34 -1 4 C-0.34 3.67 0.32 3.34 1 3 C0.67 2.01 0.34 1.02 0 0 Z " fill="#91BE1F" transform="translate(146,94)"/>
<path d="M0 0 C0.66 0.33 1.32 0.66 2 1 C0.56354149 2.60509934 -0.87420706 4.20904424 -2.3125 5.8125 C-3.11300781 6.70582031 -3.91351563 7.59914062 -4.73828125 8.51953125 C-6.45224581 10.39926786 -8.17877604 12.22592747 -10 14 C-10.66 13.67 -11.32 13.34 -12 13 C-10.56354149 11.39490066 -9.12579294 9.79095576 -7.6875 8.1875 C-6.88699219 7.29417969 -6.08648437 6.40085938 -5.26171875 5.48046875 C-3.54775419 3.60073214 -1.82122396 1.77407253 0 0 Z " fill="#2A574E" transform="translate(185,235)"/>
<path d="M0 0 C2.31 0.33 4.62 0.66 7 1 C6.67 2.65 6.34 4.3 6 6 C3.69 5.67 1.38 5.34 -1 5 C-1 4.34 -1 3.68 -1 3 C-0.34 2.67 0.32 2.34 1 2 C0.67 1.34 0.34 0.68 0 0 Z " fill="#86BA20" transform="translate(159,69)"/>
<path d="M0 0 C3.16115776 1.36983503 3.9927092 1.9890638 6 5 C5.67 5.99 5.34 6.98 5 8 C4.01 8 3.02 8 2 8 C0.25 5.6875 0.25 5.6875 -1 3 C-0.67 2.01 -0.34 1.02 0 0 Z " fill="#18443A" transform="translate(92,222)"/>
<path d="M0 0 C0.8971875 0.309375 0.8971875 0.309375 1.8125 0.625 C1.07 1.016875 0.3275 1.40875 -0.4375 1.8125 C-3.50796887 3.83621812 -5.21281338 5.52192103 -7.1875 8.625 C-7.98972151 12.314748 -7.98972151 12.314748 -8.1875 15.625 C-8.5175 15.625 -8.8475 15.625 -9.1875 15.625 C-9.81377475 7.639997 -9.81377475 7.639997 -7.375 3.6875 C-2.93108974 -0.50247253 -2.93108974 -0.50247253 0 0 Z " fill="#C6D3D0" transform="translate(213.1875,50.375)"/>
<path d="M0 0 C0.66 0.66 1.32 1.32 2 2 C0.75965588 3.32162881 -0.49268626 4.63200453 -1.75 5.9375 C-2.44609375 6.66839844 -3.1421875 7.39929688 -3.859375 8.15234375 C-6.00599725 10.00517646 -7.23532932 10.60771565 -10 11 C-6.79239749 7.19364503 -3.59253891 3.45436433 0 0 Z " fill="#1C5349" transform="translate(154,231)"/>
<path d="M0 0 C4.9723422 1.49170266 9.41845739 3.60457417 14 6 C13.67 6.99 13.34 7.98 13 9 C9.91220974 7.53400783 7.09532795 5.82973607 4.25 3.9375 C3.45078125 3.41027344 2.6515625 2.88304687 1.828125 2.33984375 C1.22484375 1.89769531 0.6215625 1.45554688 0 1 C0 0.67 0 0.34 0 0 Z " fill="#486A61" transform="translate(72,139)"/>
<path d="M0 0 C2.10388569 -0.05402274 4.20816714 -0.09280256 6.3125 -0.125 C8.07013672 -0.15980469 8.07013672 -0.15980469 9.86328125 -0.1953125 C13 0 13 0 16 2 C14.75283203 1.94779297 14.75283203 1.94779297 13.48046875 1.89453125 C12.39378906 1.86746094 11.30710937 1.84039062 10.1875 1.8125 C9.10855469 1.77769531 8.02960937 1.74289063 6.91796875 1.70703125 C3.98051156 1.73463048 3.98051156 1.73463048 2.11328125 3.51171875 C1.74589844 4.00285156 1.37851562 4.49398437 1 5 C0.67 3.35 0.34 1.7 0 0 Z " fill="#C8D4D3" transform="translate(50,189)"/>
<path d="M0 0 C0.66 0.33 1.32 0.66 2 1 C1.21625 1.639375 0.4325 2.27875 -0.375 2.9375 C-3.83045276 6.32443103 -4.32290199 10.36137332 -5 15 C-5.33 15 -5.66 15 -6 15 C-6.42004622 8.90932974 -6.0566405 5.89183119 -2 1 C-1.34 0.67 -0.68 0.34 0 0 Z " fill="#BECDCA" transform="translate(178,95)"/>
<path d="M0 0 C0.66 0.33 1.32 0.66 2 1 C-1.49087093 5.0042343 -3.64951939 6.62671065 -9 7 C-6.25604436 4.05278838 -3.61662784 1.80831392 0 0 Z " fill="#27574E" transform="translate(207,219)"/>
<path d="M0 0 C1.65 0 3.3 0 5 0 C5 0.66 5 1.32 5 2 C6.98 2 8.96 2 11 2 C11 2.33 11 2.66 11 3 C7.7 3.33 4.4 3.66 1 4 C0.67 2.68 0.34 1.36 0 0 Z " fill="#97CC25" transform="translate(136,69)"/>
<path d="M0 0 C4.59306496 1.4859916 7.43569245 3.85014682 11 7 C10.01 7.33 9.02 7.66 8 8 C5.95703125 6.6015625 5.95703125 6.6015625 3.8125 4.625 C3.09707031 3.97789062 2.38164063 3.33078125 1.64453125 2.6640625 C0 1 0 1 0 0 Z " fill="#496A5F" transform="translate(76,209)"/>
<path d="M0 0 C2.31 0 4.62 0 7 0 C7 0.99 7 1.98 7 3 C7.66 3.33 8.32 3.66 9 4 C7.68 4.33 6.36 4.66 5 5 C4.67 3.68 4.34 2.36 4 1 C2.35 1.33 0.7 1.66 -1 2 C-0.67 1.34 -0.34 0.68 0 0 Z " fill="#0A4035" transform="translate(211,198)"/>
<path d="M0 0 C0.8971875 0.5259375 0.8971875 0.5259375 1.8125 1.0625 C-2.26119424 3.09934712 -4.77687864 3.0882259 -9.1875 2.0625 C-2.84375 -1.21875 -2.84375 -1.21875 0 0 Z " fill="#184E42" transform="translate(200.1875,267.9375)"/>
<path d="M0 0 C3 1 3 1 4.1875 3.0625 C4.455625 3.701875 4.72375 4.34125 5 5 C3.35 5.66 1.7 6.32 0 7 C0 6.01 0 5.02 0 4 C-0.66 3.01 -1.32 2.02 -2 1 C-1.34 0.67 -0.68 0.34 0 0 Z " fill="#174B3F" transform="translate(170,197)"/>
<path d="M0 0 C1.41750563 0.11509661 2.83401169 0.24253658 4.25 0.375 C5.03890625 0.44460937 5.8278125 0.51421875 6.640625 0.5859375 C9.085877 1.01507113 10.84836903 1.78600638 13 3 C11.39667209 3.08121924 9.79215974 3.13929134 8.1875 3.1875 C7.29417969 3.22230469 6.40085938 3.25710937 5.48046875 3.29296875 C2.58352485 2.95081002 1.77444972 2.24606427 0 0 Z " fill="#89BA21" transform="translate(144,69)"/>
<path d="M0 0 C1.5 1.375 1.5 1.375 3 3 C3 3.66 3 4.32 3 5 C1.35 5 -0.3 5 -2 5 C-2 3.68 -2 2.36 -2 1 C-1.34 0.67 -0.68 0.34 0 0 Z " fill="#26584D" transform="translate(98,228)"/>
<path d="M0 0 C-0.639375 0.103125 -1.27875 0.20625 -1.9375 0.3125 C-2.618125 0.539375 -3.29875 0.76625 -4 1 C-4.33 1.99 -4.66 2.98 -5 4 C-6.98 4 -8.96 4 -11 4 C-3.77464789 -1.88732394 -3.77464789 -1.88732394 0 0 Z " fill="#356158" transform="translate(228,211)"/>
<path d="M0 0 C0.99 0.66 1.98 1.32 3 2 C3.99 2.33 4.98 2.66 6 3 C3.69 3.66 1.38 4.32 -1 5 C-1.66 4.34 -2.32 3.68 -3 3 C-3 2.34 -3 1.68 -3 1 C-2.01 0.67 -1.02 0.34 0 0 Z " fill="#0B4437" transform="translate(236,209)"/>
<path d="M0 0 C0.99 0.33 1.98 0.66 3 1 C2.45276317 4.37462715 1.9451 6.08235 0 9 C0 6.03 0 3.06 0 0 Z " fill="#295C4F" transform="translate(102,247)"/>
<path d="M0 0 C-0.33 0.66 -0.66 1.32 -1 2 C-1.94875 1.979375 -2.8975 1.95875 -3.875 1.9375 C-6.90666283 1.77448174 -6.90666283 1.77448174 -9 3 C-11.00800456 2.71887936 -13.01014051 2.38932033 -15 2 C-15 1.67 -15 1.34 -15 1 C-9.94997778 -0.03590199 -5.12583611 -0.10251672 0 0 Z " fill="#BCCBC7" transform="translate(259,210)"/>
<path d="M0 0 C0.66 0.33 1.32 0.66 2 1 C-0.64 3.64 -3.28 6.28 -6 9 C-6 6 -6 6 -3.5625 3.375 C-2.716875 2.59125 -1.87125 1.8075 -1 1 C-0.67 0.67 -0.34 0.34 0 0 Z " fill="#D5DEDC" transform="translate(159,148)"/>
<path d="M0 0 C1.8871875 0.061875 1.8871875 0.061875 3.8125 0.125 C2.1625 1.445 0.5125 2.765 -1.1875 4.125 C-1.1875 3.465 -1.1875 2.805 -1.1875 2.125 C-3.1675 2.125 -5.1475 2.125 -7.1875 2.125 C-4.09861478 0.06574319 -3.47814073 -0.1140374 0 0 Z " fill="#265B50" transform="translate(219.1875,195.875)"/>
<path d="M0 0 C0.66 0.33 1.32 0.66 2 1 C0.71034824 2.37562854 -0.62689293 3.70766393 -2 5 C-2.66 5 -3.32 5 -4 5 C-4.33 6.32 -4.66 7.64 -5 9 C-5.3125 6.75 -5.3125 6.75 -5 4 C-2.5 1.6875 -2.5 1.6875 0 0 Z " fill="#CAD7D5" transform="translate(172,162)"/>
<path d="M0 0 C0.33 0.66 0.66 1.32 1 2 C-0.65 3.98 -2.3 5.96 -4 8 C-4.66 7.67 -5.32 7.34 -6 7 C-4.02 4.69 -2.04 2.38 0 0 Z " fill="#356158" transform="translate(205,144)"/>
</svg>
